<svg width="30" height="30" viewBox="0 0 30 30" fill="none" xmlns="http://www.w3.org/2000/svg">
<path d="M23.0093 15.0775C22.9406 14.6014 22.8635 14.0826 22.7862 13.555C22.4431 11.2691 22.0485 8.76858 21.9155 8.40858C21.6625 7.72216 20.8391 5.78809 17.9184 6.88608C16.9963 7.23331 16.8162 7.58511 15.4781 7.40932C14.466 7.27632 13.8184 6.49585 12.4116 5.96393C9.491 4.85751 8.21718 6.65013 7.96417 7.33632C7.83116 7.69655 7.43659 11.2692 7.09347 13.555C7.01202 14.0742 6.93919 14.5843 6.87057 15.0563C9.05354 15.4978 11.8026 15.8109 14.9978 15.8109C18.1372 15.8108 20.8477 15.5107 23.0093 15.0775Z" fill="white"/>
<path d="M25.9985 17.9596C25.5267 17.8309 25.0121 17.7108 24.4717 17.5993C24.3645 17.5521 24.2572 17.5094 24.15 17.4663H24.1458C21.3967 18.0753 18.1543 18.3841 14.9978 18.3841C11.8542 18.3841 8.62471 18.0753 5.8841 17.475C5.80699 17.505 5.72549 17.5393 5.64398 17.5737C5.12496 17.6808 4.6275 17.7922 4.17293 17.9124L4.16426 17.9167C1.5825 18.603 0 19.5336 0 20.5629C0 22.6729 6.71186 24.3884 15.0021 24.3884C23.2837 24.3884 30 22.6729 30 20.5629C30 19.5551 28.4775 18.6457 25.9985 17.9596Z" fill="white"/>
</svg>
