<svg width="70" height="70" viewBox="0 0 70 70" fill="none" xmlns="http://www.w3.org/2000/svg">
<g clip-path="url(#clip0_2_364)">
<path fill-rule="evenodd" clip-rule="evenodd" d="M38.5 62.756V55.6825C49 54.2055 54.208 47.2854 55.685 38.4969H62.7585C61.1695 51.1389 52.5 61.1705 38.5 62.756ZM38.5 41.028C38.5 40.4155 40.418 39.5504 41.0305 38.4969H48.503C47.229 43.3934 42 47.2291 38.5 48.4996V41.028ZM38.5 21.4943C42 22.7683 47.229 26.6039 48.503 31.4969H41.0305C40.418 30.4469 38.5 29.5784 38.5 28.9694V21.4943ZM38.5 7.24133C52.5 8.82683 61.1695 18.8584 62.7585 31.4969H55.685C54.208 22.7119 49 15.7919 38.5 14.3114V7.24133ZM31.5 14.3114C21 15.7919 15.792 22.7119 14.315 31.4969H7.2415C8.8305 18.8584 17.5 8.82683 31.5 7.24133V14.3114ZM31.5 28.9694C31.5 29.5784 29.582 30.4469 28.9695 31.4969H21.497C22.771 26.6039 28 22.7683 31.5 21.4943V28.9694ZM31.5 48.4996C28 47.2291 22.771 43.3934 21.497 38.4969H28.9695C29.582 39.5504 31.5 40.4155 31.5 41.028V48.4996ZM31.5 62.756C17.5 61.1705 8.8305 51.1389 7.2415 38.4969H14.315C15.792 47.2854 21 54.2055 31.5 55.6825V62.756ZM35 -0.00305176C15.6695 -0.00305176 0 15.6699 0 34.9969C0 54.3274 15.6695 69.9969 35 69.9969C54.3305 69.9969 70 54.3274 70 34.9969C70 15.6699 54.3305 -0.00305176 35 -0.00305176Z" fill="black" fill-opacity="0.75"/>
</g>
<defs>
<clipPath id="clip0_2_364">
<rect width="70" height="70" fill="white"/>
</clipPath>
</defs>
</svg>
