<svg width="70" height="70" viewBox="0 0 70 70" fill="none" xmlns="http://www.w3.org/2000/svg">
<path fill-rule="evenodd" clip-rule="evenodd" d="M18.5928 13.2767C23.914 9.25643 30.5259 7.32946 37.1738 7.8614C43.8218 8.39334 50.0431 11.3472 54.6574 16.1624C59.2716 20.9776 61.9577 27.3192 62.2059 33.9838C62.4541 40.6483 60.2472 47.1721 56.0039 52.3172L18.5928 13.2767ZM13.1172 18.7989C9.29059 23.962 7.41402 30.3125 7.81966 36.7263C8.22531 43.1401 10.887 49.2035 15.3336 53.8434C19.7803 58.4833 25.7251 61.4004 32.1158 62.0783C38.5065 62.7563 44.9311 61.1514 50.2522 57.5478L13.1172 18.8067V18.7989ZM35 0C25.7174 0 16.815 3.68749 10.2513 10.2513C3.68749 16.815 0 25.7174 0 35C0 44.2826 3.68749 53.185 10.2513 59.7487C16.815 66.3125 25.7174 70 35 70C44.2826 70 53.185 66.3125 59.7487 59.7487C66.3125 53.185 70 44.2826 70 35C70 25.7174 66.3125 16.815 59.7487 10.2513C53.185 3.68749 44.2826 0 35 0Z" fill="black" fill-opacity="0.75"/>
</svg>
