<svg width="30" height="30" viewBox="0 0 30 30" fill="none" xmlns="http://www.w3.org/2000/svg">
<g clip-path="url(#clip0_1_332)">
<path d="M26.3168 19.604C25.9649 19.604 25.6382 19.7004 25.3556 19.8651C25.2519 19.9257 25.1198 19.8978 25.0494 19.801L22.2426 15.9668C21.8211 15.3912 21.8211 14.6089 22.2426 14.0333L25.0485 10.2C25.119 10.1032 25.252 10.0753 25.3556 10.1361C25.6372 10.3008 25.9649 10.3981 26.3169 10.3981C27.384 10.3981 28.2495 9.53353 28.2495 8.46605C28.2495 7.39907 27.384 6.53449 26.3169 6.53449C25.2509 6.53449 24.3854 7.399 24.3854 8.46605C24.3854 8.58584 24.2955 8.68609 24.1761 8.69878L19.4583 9.21171C18.7492 9.28906 18.0715 8.89783 17.784 8.24543L15.8661 3.90023C15.8181 3.79116 15.8602 3.66305 15.9629 3.60341C16.5419 3.26947 16.932 2.64645 16.932 1.93206C16.932 0.865081 16.0665 0 14.9996 0C13.9335 0 13.068 0.865018 13.068 1.93206C13.068 2.64645 13.4582 3.26947 14.0362 3.60341C14.14 3.66305 14.181 3.79071 14.133 3.90023L12.2162 8.24499C11.9287 8.89783 11.2509 9.28906 10.5418 9.21171L5.82391 8.69878C5.70469 8.68603 5.61471 8.58584 5.61471 8.46605C5.61471 7.39907 4.74912 6.53449 3.68221 6.53449C2.61612 6.53449 1.75072 7.399 1.75072 8.46605C1.75072 9.53353 2.61618 10.3981 3.68221 10.3981C4.03525 10.3981 4.36189 10.3008 4.64449 10.1361C4.74912 10.0753 4.8811 10.1028 4.95166 10.2L7.75749 14.0333C8.17804 14.6089 8.17804 15.3912 7.75749 15.9668L4.95071 19.801C4.88034 19.8978 4.74728 19.9257 4.64354 19.8656C4.36094 19.7004 4.03525 19.604 3.68227 19.604C2.61618 19.604 1.75078 20.4684 1.75078 21.5355C1.75078 22.603 2.61624 23.4676 3.68227 23.4676C4.74919 23.4676 5.61478 22.603 5.61478 21.5355C5.61478 21.4142 5.70475 21.314 5.82397 21.3013L10.5419 20.7883C11.2509 20.711 11.9287 21.1022 12.2163 21.755L14.1331 26.0998C14.1811 26.2088 14.139 26.3369 14.0363 26.3966C13.4583 26.7306 13.068 27.3535 13.068 28.0679C13.068 29.135 13.9336 30 14.9996 30C16.0666 30 16.9321 29.135 16.9321 28.0679C16.9321 27.3535 16.5419 26.7306 15.963 26.3966C15.8602 26.3369 15.8182 26.2088 15.8662 26.0998L17.784 21.7545C18.0715 21.1022 18.7493 20.711 19.4584 20.7883L24.1761 21.3013C24.2956 21.314 24.3855 21.4147 24.3855 21.5355C24.3855 22.603 25.2511 23.4676 26.317 23.4676C27.3841 23.4676 28.2495 22.603 28.2495 21.5355C28.2494 20.4684 27.3839 19.604 26.3168 19.604Z" fill="white"/>
</g>
<defs>
<clipPath id="clip0_1_332">
<rect width="30" height="30" fill="white"/>
</clipPath>
</defs>
</svg>
